<?xml version="1.0" encoding="UTF-8"?>
<svg version="1.1" xmlns="http://www.w3.org/2000/svg" width="500" height="500">
<path d="M0 0 C2.39988219 0.00546727 4.79958558 -0.00003794 7.19946289 -0.00634766 C8.72745809 -0.00568857 10.25545319 -0.00441094 11.78344727 -0.00244141 C12.85820061 -0.00547775 12.85820061 -0.00547775 13.95466614 -0.00857544 C18.93014686 0.01535194 18.93014686 0.01535194 20.04516602 1.13037109 C20.13274604 3.13002091 20.15213178 5.13273219 20.14282227 7.13427734 C20.13798828 8.95668945 20.13798828 8.95668945 20.13305664 10.81591797 C20.12048828 12.73500977 20.12048828 12.73500977 20.10766602 14.69287109 C20.1031543 15.97613281 20.09864258 17.25939453 20.09399414 18.58154297 C20.08216147 21.76453132 20.0656767 24.94742872 20.04516602 28.13037109 C19.22403069 28.13583954 19.22403069 28.13583954 18.38630676 28.14141846 C12.62577689 28.18362478 6.86601582 28.2532288 1.10595703 28.33789062 C-1.03621688 28.36590553 -3.17849043 28.38721566 -5.32080078 28.40136719 C-26.97597165 28.52050955 -26.97597165 28.52050955 -46.15014648 37.86083984 C-47.95483398 39.13037109 -47.95483398 39.13037109 -50.95483398 40.13037109 C-52.17353327 42.63484625 -52.17353327 42.63484625 -52.95483398 45.13037109 C-53.61483398 45.13037109 -54.27483398 45.13037109 -54.95483398 45.13037109 C-55.22295898 46.09974609 -55.49108398 47.06912109 -55.76733398 48.06787109 C-56.33965434 50.11908969 -56.94493825 52.10480259 -57.71386719 54.09155273 C-60.09450902 60.32761576 -60.40824588 66.00020987 -60.32983398 72.63037109 C-60.34143555 73.61134766 -60.35303711 74.59232422 -60.36499023 75.60302734 C-60.33648058 82.73994389 -59.23052387 88.85979106 -55.85473633 95.19482422 C-54.95483398 97.13037109 -54.95483398 97.13037109 -54.95483398 100.13037109 C-54.29483398 100.13037109 -53.63483398 100.13037109 -52.95483398 100.13037109 C-51.43920898 101.73974609 -51.43920898 101.73974609 -49.70483398 103.88037109 C-42.39801127 112.35032069 -33.17005323 115.70334219 -22.10717773 116.60302734 C-17.72144831 116.8973558 -13.35519922 116.9960088 -8.95483398 117.13037109 C-8.95483398 105.91037109 -8.95483398 94.69037109 -8.95483398 83.13037109 C-18.19483398 83.13037109 -27.43483398 83.13037109 -36.95483398 83.13037109 C-36.95483398 73.56037109 -36.95483398 63.99037109 -36.95483398 54.13037109 C-18.14483398 54.13037109 0.66516602 54.13037109 20.04516602 54.13037109 C20.04516602 84.16037109 20.04516602 114.19037109 20.04516602 145.13037109 C-50.37418882 145.13037109 -50.37418882 145.13037109 -68.95483398 129.13037109 C-68.95483398 128.47037109 -68.95483398 127.81037109 -68.95483398 127.13037109 C-69.55295898 126.86224609 -70.15108398 126.59412109 -70.76733398 126.31787109 C-72.95331252 125.13119703 -74.36815992 124.03437997 -75.95483398 122.13037109 C-75.95483398 121.47037109 -75.95483398 120.81037109 -75.95483398 120.13037109 C-76.61483398 120.13037109 -77.27483398 120.13037109 -77.95483398 120.13037109 C-79.95483398 117.13037109 -79.95483398 117.13037109 -79.95483398 114.13037109 C-80.61483398 114.13037109 -81.27483398 114.13037109 -81.95483398 114.13037109 C-92.26713321 92.36433494 -95.0200338 66.24372189 -86.95483398 43.13037109 C-84.95861749 38.27939819 -82.56038145 33.6827602 -79.95483398 29.13037109 C-79.29483398 29.13037109 -78.63483398 29.13037109 -77.95483398 29.13037109 C-77.95483398 28.14037109 -77.95483398 27.15037109 -77.95483398 26.13037109 C-77.29483398 26.13037109 -76.63483398 26.13037109 -75.95483398 26.13037109 C-75.95483398 25.47037109 -75.95483398 24.81037109 -75.95483398 24.13037109 C-75.29483398 24.13037109 -74.63483398 24.13037109 -73.95483398 24.13037109 C-73.72795898 23.55287109 -73.50108398 22.97537109 -73.26733398 22.38037109 C-71.60635176 19.532973 -69.63958837 18.00969917 -66.95483398 16.13037109 C-66.29483398 16.13037109 -65.63483398 16.13037109 -64.95483398 16.13037109 C-64.95483398 15.47037109 -64.95483398 14.81037109 -64.95483398 14.13037109 C-56.48768119 9.19697274 -48.49170196 5.60520708 -38.95483398 3.13037109 C-37.8043457 2.80939453 -37.8043457 2.80939453 -36.63061523 2.48193359 C-24.8177671 -0.53132526 -12.11349662 -0.0329757 0 0 Z " fill="#F6F6F6" transform="translate(267.954833984375,154.86962890625)"/>
<path d="M0 0 C1.10285843 0.00303635 1.10285843 0.00303635 2.22799683 0.00613403 C2.99006439 0.00517731 3.75213196 0.00422058 4.53729248 0.00323486 C6.16319867 0.00255196 7.78910754 0.00441385 9.41500854 0.00857544 C11.84883174 0.01381972 14.28246148 0.0086888 16.71627808 0.00222778 C40.01756717 -0.01103945 63.56247261 1.30357399 82.78268433 16.13894653 C82.78268433 16.79894653 82.78268433 17.45894653 82.78268433 18.13894653 C83.44268433 18.13894653 84.10268433 18.13894653 84.78268433 18.13894653 C84.78268433 18.79894653 84.78268433 19.45894653 84.78268433 20.13894653 C86.10268433 20.79894653 87.42268433 21.45894653 88.78268433 22.13894653 C88.78268433 22.79894653 88.78268433 23.45894653 88.78268433 24.13894653 C89.44268433 24.13894653 90.10268433 24.13894653 90.78268433 24.13894653 C104.38026635 42.05694254 105.15886835 60.50836525 104.78268433 82.13894653 C104.77752808 83.15214966 104.77237183 84.16535278 104.76705933 85.20925903 C104.28676138 96.42764682 99.59625818 109.24344733 92.78268433 118.13894653 C92.12268433 118.13894653 91.46268433 118.13894653 90.78268433 118.13894653 C90.12268433 119.78894653 89.46268433 121.43894653 88.78268433 123.13894653 C88.12268433 123.13894653 87.46268433 123.13894653 86.78268433 123.13894653 C86.78268433 123.79894653 86.78268433 124.45894653 86.78268433 125.13894653 C86.12268433 125.13894653 85.46268433 125.13894653 84.78268433 125.13894653 C84.78268433 125.79894653 84.78268433 126.45894653 84.78268433 127.13894653 C82.68744249 128.70283021 80.61385303 130.12208035 78.40768433 131.51394653 C77.77153198 131.91879272 77.13537964 132.32363892 76.47994995 132.74075317 C71.45473479 135.86759589 66.40522416 138.26476659 60.78268433 140.13894653 C59.26674683 140.69582153 59.26674683 140.69582153 57.72018433 141.26394653 C43.93412583 145.37043204 29.89039551 145.30470392 15.62155151 145.26931763 C12.99551856 145.26386943 10.36965019 145.26934102 7.74362183 145.27566528 C6.07435062 145.27500593 4.40507951 145.27372776 2.73580933 145.27175903 C1.95054871 145.27378326 1.16528809 145.2758075 0.35623169 145.27789307 C-5.10230809 145.25395412 -5.10230809 145.25395412 -6.21731567 144.13894653 C-6.31631128 142.33385281 -6.34530718 140.52487725 -6.34671021 138.71707153 C-6.34986237 137.55917114 -6.35301453 136.40127075 -6.35626221 135.20828247 C-6.35423798 133.94790161 -6.35221375 132.68752075 -6.35012817 131.38894653 C-6.35156326 129.46357056 -6.35156326 129.46357056 -6.35302734 127.4992981 C-6.35450398 124.7789083 -6.35235086 122.05855128 -6.34768677 119.33816528 C-6.34198948 115.84409984 -6.34526867 112.3501112 -6.35125923 108.85604858 C-6.35573322 105.533675 -6.35260452 102.2113223 -6.35012817 98.88894653 C-6.3521524 97.62856567 -6.35417664 96.36818481 -6.35626221 95.0696106 C-6.35311005 93.91171021 -6.34995789 92.75380981 -6.34671021 91.56082153 C-6.34551682 90.0231311 -6.34551682 90.0231311 -6.34429932 88.45437622 C-6.21731567 86.13894653 -6.21731567 86.13894653 -5.21731567 85.13894653 C-3.2297454 85.03911596 -1.23864048 85.008139 0.75143433 85.00613403 C1.96186401 85.00484497 3.1722937 85.00355591 4.41940308 85.00222778 C5.69428589 85.00609497 6.9691687 85.00996216 8.28268433 85.01394653 C10.19500854 85.00814575 10.19500854 85.00814575 12.14596558 85.00222778 C13.35639526 85.00351685 14.56682495 85.00480591 15.81393433 85.00613403 C16.93348511 85.00726196 18.05303589 85.00838989 19.20651245 85.009552 C21.78268433 85.13894653 21.78268433 85.13894653 22.78268433 86.13894653 C22.87059408 88.43046071 22.88962471 90.72467178 22.88034058 93.01785278 C22.87892563 93.70451523 22.87751068 94.39117767 22.87605286 95.09864807 C22.87043912 97.29962454 22.8578844 99.50050062 22.84518433 101.70144653 C22.84017109 103.19037736 22.83560788 104.67930977 22.83151245 106.16824341 C22.82046525 109.82517728 22.80319146 113.48205212 22.78268433 117.13894653 C38.05445599 116.79614582 51.74508396 115.66269047 63.78268433 105.13894653 C64.77268433 103.65394653 64.77268433 103.65394653 65.78268433 102.13894653 C66.44268433 102.13894653 67.10268433 102.13894653 67.78268433 102.13894653 C68.07014526 101.41320435 68.3576062 100.68746216 68.65377808 99.93972778 C69.3551076 98.19975107 70.07342651 96.46639953 70.81784058 94.74441528 C75.62383134 83.43297694 77.35697471 67.58641011 72.89596558 55.79519653 C72.2086542 54.26216 71.5009984 52.73804298 70.77096558 51.22488403 C69.52839969 48.60223509 68.63526597 45.90983688 67.78268433 43.13894653 C67.12268433 43.13894653 66.46268433 43.13894653 65.78268433 43.13894653 C65.78268433 42.47894653 65.78268433 41.81894653 65.78268433 41.13894653 C65.12268433 41.13894653 64.46268433 41.13894653 63.78268433 41.13894653 C63.78268433 40.47894653 63.78268433 39.81894653 63.78268433 39.13894653 C63.23096558 38.87082153 62.67924683 38.60269653 62.11080933 38.32644653 C58.61073436 36.54117339 55.23084037 34.54250494 51.82955933 32.57644653 C45.1349828 29.41797966 38.56732563 28.79964529 31.28268433 28.51394653 C28.47768433 28.39019653 25.67268433 28.26644653 22.78268433 28.13894653 C22.78268433 38.69894653 22.78268433 49.25894653 22.78268433 60.13894653 C13.21268433 60.13894653 3.64268433 60.13894653 -6.21731567 60.13894653 C-6.23826116 52.47057086 -6.25829925 44.80229823 -6.26906586 37.13391876 C-6.27435557 33.56323529 -6.28142906 29.99257538 -6.29275513 26.42190552 C-6.30565743 22.32888556 -6.31054474 18.23589074 -6.31497192 14.14285278 C-6.32013321 12.85746109 -6.32529449 11.5720694 -6.33061218 10.24772644 C-6.33068771 9.06657761 -6.33076324 7.88542877 -6.33084106 6.66848755 C-6.33306168 5.6225795 -6.33528229 4.57667145 -6.33757019 3.49906921 C-6.11348834 -0.89877527 -3.85552092 0.01807826 0 0 Z " fill="#F5F5F5" transform="translate(307.2173156738281,154.86105346679688)"/>
<path d="M0 0 C9.57 0 19.14 0 29 0 C29 1.65 29 3.3 29 5 C21.08 5 13.16 5 5 5 C5.33 53.84 5.66 102.68 6 153 C7.98 151.02 7.98 151.02 10 149 C12.25390625 148.5390625 12.25390625 148.5390625 14.5625 148.625 C15.32691406 148.63789063 16.09132812 148.65078125 16.87890625 148.6640625 C19 149 19 149 22 151 C22 151.99 22 152.98 22 154 C20.35 154.33 18.7 154.66 17 155 C17 154.01 17 153.02 17 152 C15.35 152 13.7 152 12 152 C11.67 154.97 11.34 157.94 11 161 C11.66 161 12.32 161 13 161 C13 159.68 13 158.36 13 157 C16.3 157 19.6 157 23 157 C23 160.63 23 164.26 23 168 C21.06257659 168.02703381 19.12504521 168.04641125 17.1875 168.0625 C16.10855469 168.07410156 15.02960938 168.08570313 13.91796875 168.09765625 C11 168 11 168 8 167 C8 166.34 8 165.68 8 165 C7.34 165 6.68 165 6 165 C5.67 168.63 5.34 172.26 5 176 C102.68 176 200.36 176 301 176 C301 177.32 301 178.64 301 180 C262.9432121 180.02286846 224.88642522 180.04049929 186.82963184 180.05106533 C182.3408483 180.0523161 177.85206477 180.05361041 173.36328125 180.05493164 C172.02277746 180.05532511 172.02277746 180.05532511 170.65519278 180.05572652 C156.16828929 180.06008268 141.68138974 180.06796993 127.1944886 180.0771528 C112.33933617 180.08649084 97.48418583 180.09205593 82.62903059 180.09408849 C73.45611423 180.09546341 64.28320904 180.0998123 55.11029612 180.10791647 C48.82760788 180.11318578 42.54492546 180.11480387 36.26223518 180.11350138 C32.63270216 180.11285829 29.00318871 180.11387224 25.37365913 180.11920547 C21.44633382 180.12493443 17.51903437 180.12299896 13.59170532 180.12025452 C12.43413746 180.12316736 11.27656961 180.1260802 10.08392394 180.12908131 C9.03840656 180.12709026 7.99288919 180.12509921 6.91568947 180.12304783 C6.00815788 180.12342755 5.10062629 180.12380727 4.16559374 180.1241985 C2 180 2 180 0 179 C0 119.93 0 60.86 0 0 Z M13.9375 162 C13.298125 162.66 12.65875 163.32 12 164 C12.66 164 13.32 164 14 164 C14 164.66 14 165.32 14 166 C14.99 165.67 15.98 165.34 17 165 C17 163.35 17 161.7 17 160 C15.64082319 159.88397569 15.64082319 159.88397569 13.9375 162 Z " fill="#D8D8D8" transform="translate(158,158)"/>
<path d="M0 0 C8.91 0 17.82 0 27 0 C27 0.99 27 1.98 27 3 C19.41 3.33 11.82 3.66 4 4 C4 52.18 4 100.36 4 150 C2.68 150.33 1.36 150.66 0 151 C0 101.17 0 51.34 0 0 Z " fill="#F3F3F3" transform="translate(159,159)"/>
<path d="M0 0 C9.57 0 19.14 0 29 0 C29 1.65 29 3.3 29 5 C22.07 5 15.14 5 8 5 C8 4.67 8 4.34 8 4 C14.6 4 21.2 4 28 4 C28 3.01 28 2.02 28 1 C19.09 1 10.18 1 1 1 C1.33 50.5 1.66 100 2 151 C2.99 151 3.98 151 5 151 C5.33 151.66 5.66 152.32 6 153 C6.7115625 152.01 6.7115625 152.01 7.4375 151 C10.73435627 148.42684389 12.8159509 148.59554723 16.87890625 148.6640625 C19 149 19 149 22 151 C22 151.99 22 152.98 22 154 C20.35 154.33 18.7 154.66 17 155 C17 154.01 17 153.02 17 152 C15.35 152 13.7 152 12 152 C11.67 154.97 11.34 157.94 11 161 C11.66 161 12.32 161 13 161 C13 159.68 13 158.36 13 157 C16.3 157 19.6 157 23 157 C23 160.63 23 164.26 23 168 C21.06257659 168.02703381 19.12504521 168.04641125 17.1875 168.0625 C16.10855469 168.07410156 15.02960938 168.08570313 13.91796875 168.09765625 C11 168 11 168 8 167 C8 166.34 8 165.68 8 165 C7.34 165 6.68 165 6 165 C5.67 168.63 5.34 172.26 5 176 C33.38 176 61.76 176 91 176 C91 176.33 91 176.66 91 177 C62.29 177 33.58 177 4 177 C3.67 174.36 3.34 171.72 3 169 C2.67 168.67 2.34 168.34 2 168 C2 171.63 2 175.26 2 179 C1.34 179 0.68 179 0 179 C0 119.93 0 60.86 0 0 Z M13.9375 162 C13.298125 162.66 12.65875 163.32 12 164 C12.66 164 13.32 164 14 164 C14 164.66 14 165.32 14 166 C14.99 165.67 15.98 165.34 17 165 C17 163.35 17 161.7 17 160 C15.64082319 159.88397569 15.64082319 159.88397569 13.9375 162 Z " fill="#9E9E9E" transform="translate(158,158)"/>
<path d="M0 0 C2.3925 -0.0825 4.785 -0.165 7.25 -0.25 C7.99668945 -0.28641602 8.74337891 -0.32283203 9.51269531 -0.36035156 C12.94692959 -0.41761959 14.71292003 -0.21295134 17.49609375 1.8515625 C19 4 19 4 18.8125 6.625 C18 9 18 9 17 11 C16.34 11 15.68 11 15 11 C15.66 12.98 16.32 14.96 17 17 C17.66 17 18.32 17 19 17 C19 17.66 19 18.32 19 19 C16.03 19 13.06 19 10 19 C9.67 17.35 9.34 15.7 9 14 C9 15.65 9 17.3 9 19 C6.03 19 3.06 19 0 19 C0 12.73 0 6.46 0 0 Z M8 2 C8 4.64 8 7.28 8 10 C9.32 9.34 10.64 8.68 12 8 C11.67 6.35 11.34 4.7 11 3 C10.01 2.67 9.02 2.34 8 2 Z " fill="#A2A2A2" transform="translate(183,307)"/>
<path d="M0 0 C3.3 0 6.6 0 10 0 C9.67 0.66 9.34 1.32 9 2 C8.76827173 4.54615009 8.58105471 7.07396225 8.4375 9.625 C8.39431641 10.33140625 8.35113281 11.0378125 8.30664062 11.765625 C8.20055249 13.51018537 8.09977111 15.25506697 8 17 C8.99 17 9.98 17 11 17 C11 11.39 11 5.78 11 0 C13.64 0 16.28 0 19 0 C18.85860519 2.25028329 18.71171997 4.50022206 18.5625 6.75 C18.48128906 8.00296875 18.40007812 9.2559375 18.31640625 10.546875 C17.81851281 15.98067498 17.81851281 15.98067498 17 18 C14.23952457 18.92015848 12.36637731 19.19267245 9.5 19.25 C8.7265625 19.27578125 7.953125 19.3015625 7.15625 19.328125 C4.47362345 18.91989922 3.66610906 18.09279553 2 16 C0.5192152 13.0384304 0.64685963 10.16493705 0.4375 6.875 C0.35371094 5.59367187 0.26992187 4.31234375 0.18359375 2.9921875 C0.12300781 2.00476563 0.06242188 1.01734375 0 0 Z " fill="#D5D5D5" transform="translate(224,307)"/>
<path d="M0 0 C3.3 0 6.6 0 10 0 C10 0.66 10 1.32 10 2 C9.34 2 8.68 2 8 2 C8.11341637 4.31309705 8.24103807 6.62550185 8.375 8.9375 C8.44460938 10.22527344 8.51421875 11.51304687 8.5859375 12.83984375 C8.72257812 13.88269531 8.85921875 14.92554688 9 16 C9.66 16.33 10.32 16.66 11 17 C11 11.39 11 5.78 11 0 C13.97 0 16.94 0 20 0 C19.88566637 2.25056722 19.75813564 4.50046674 19.625 6.75 C19.55539062 8.00296875 19.48578125 9.2559375 19.4140625 10.546875 C19.04497715 13.62490751 18.78333536 15.50090419 17 18 C12.50123084 19.49958972 8.09729336 20.01900296 3.7890625 17.92578125 C1.15448016 15.0898662 1.42663983 12.74347289 1.3125 8.9375 C1.32808094 4.30384809 1.32808094 4.30384809 0 0 Z " fill="#D7D8D8" transform="translate(371,307)"/>
<path d="M0 0 C2.10388569 -0.05402274 4.20816714 -0.09280256 6.3125 -0.125 C8.07013672 -0.15980469 8.07013672 -0.15980469 9.86328125 -0.1953125 C13 0 13 0 16 2 C16 2.66 16 3.32 16 4 C16.66 4 17.32 4 18 4 C18.08114106 5.77007714 18.13925505 7.54122098 18.1875 9.3125 C18.23970703 10.79169922 18.23970703 10.79169922 18.29296875 12.30078125 C18 15 18 15 16.67578125 16.79296875 C13.19477191 19.30026918 9.94606905 19.10694698 5.8125 19.0625 C4.18248047 19.04896484 4.18248047 19.04896484 2.51953125 19.03515625 C1.68808594 19.02355469 0.85664063 19.01195312 0 19 C0 18.34 0 17.68 0 17 C0.66 17 1.32 17 2 17 C1.85899143 14.72886197 1.71203245 12.45809275 1.5625 10.1875 C1.48128906 8.92292969 1.40007812 7.65835937 1.31640625 6.35546875 C1.12815453 3.00818107 1.12815453 3.00818107 0 0 Z M8 3 C8 7.62 8 12.24 8 17 C8.66 17 9.32 17 10 17 C10 16.34 10 15.68 10 15 C10.66 15 11.32 15 12 15 C12.02698189 13.37509046 12.04638757 11.75005367 12.0625 10.125 C12.07410156 9.22007812 12.08570313 8.31515625 12.09765625 7.3828125 C12.16249257 4.9831415 12.16249257 4.9831415 11 3 C10.01 3 9.02 3 8 3 Z " fill="#BEBEBE" transform="translate(279,307)"/>
<path d="M0 0 C2.9375 1.5625 2.9375 1.5625 5 4 C6.2306579 8.07655428 6.26384447 10.95349863 4.75 14.875 C3 18 3 18 0 19 C-3.68382769 19.13156527 -6.49053585 19.16982138 -10 18 C-10 17.34 -10 16.68 -10 16 C-10.66 16 -11.32 16 -12 16 C-13.86019856 12.86091493 -14.44395022 10.64039183 -14 7 C-10.89119666 0.63435506 -6.94662826 -1.06975367 0 0 Z M-4 2 C-4.99 2.495 -4.99 2.495 -6 3 C-7.19920347 7.36401863 -7.49613479 10.94301718 -5.5625 15.0625 C-5.046875 15.701875 -4.53125 16.34125 -4 17 C-1.82649931 15.25774945 -1.06354762 14.38440081 -0.6015625 11.58984375 C-0.60929688 10.71457031 -0.61703125 9.83929688 -0.625 8.9375 C-0.61726562 8.05964844 -0.60953125 7.18179687 -0.6015625 6.27734375 C-0.73304688 5.52582031 -0.86453125 4.77429688 -1 4 C-1.99 3.34 -2.98 2.68 -4 2 Z " fill="#C0C0C0" transform="translate(217,307)"/>
<path d="M0 0 C4.7373412 -0.46444522 7.94841058 -0.66529126 12.0625 1.9375 C14.66080523 6.04449859 14.82397771 9.25991319 14 14 C12.27310955 17.28931514 11.5579199 17.8140267 8 19 C4.31617231 19.13156527 1.50946415 19.16982138 -2 18 C-4.36552766 14.53619164 -5.26108971 11.88141285 -4.9375 7.75 C-4 4 -4 4 -1.9375 2.5 C-1.298125 2.335 -0.65875 2.17 0 2 C0 1.34 0 0.68 0 0 Z M4 2 C1.6253645 5.13451886 0.98715755 6.62756904 1.125 10.625 C1.95951175 13.84383105 2.38685976 15.06854852 5 17 C7.45444152 13.85831485 8.25204065 11.71807205 7.875 7.8125 C7.40802187 3.77593188 7.40802187 3.77593188 4 2 Z " fill="#BDBDBD" transform="translate(356,307)"/>
<path d="M0 0 C2.413125 -0.04125 4.82625 -0.0825 7.3125 -0.125 C8.06829346 -0.14320801 8.82408691 -0.16141602 9.6027832 -0.18017578 C13.31447871 -0.21099473 14.83533664 -0.10977558 18 2 C18.9375 4.3125 18.9375 4.3125 19 7 C17.5625 9.8125 17.5625 9.8125 15 12 C12.1975057 12.42704675 9.85947552 12.23828963 7 12 C7.66 14.31 8.32 16.62 9 19 C6.03 19 3.06 19 0 19 C0 12.73 0 6.46 0 0 Z M9 2 C8.01 2.495 8.01 2.495 7 3 C7 5.31 7 7.62 7 10 C9.75641416 9.50243908 9.75641416 9.50243908 12 8 C12.04063832 6.33382885 12.042721 4.66611905 12 3 C11.01 2.67 10.02 2.34 9 2 Z " fill="#D8D8D8" transform="translate(245,307)"/>
<path d="M0 0 C2.64 0 5.28 0 8 0 C8.66 2.64 9.32 5.28 10 8 C10.66 8 11.32 8 12 8 C11.34 5.36 10.68 2.72 10 0 C11.98 0 13.96 0 16 0 C15.67 6.27 15.34 12.54 15 19 C10.40804906 17.85201226 10.12179476 17.26471427 7.75 13.4375 C7.22921875 12.61121094 6.7084375 11.78492188 6.171875 10.93359375 C5.78515625 10.29550781 5.3984375 9.65742188 5 9 C5 12.3 5 15.6 5 19 C3.35 19 1.7 19 0 19 C0 12.73 0 6.46 0 0 Z " fill="#C6C6C7" transform="translate(393,307)"/>
<path d="M0 0 C5.28 0 10.56 0 16 0 C16.33 1.98 16.66 3.96 17 6 C16.01 6 15.02 6 14 6 C13.67 5.34 13.34 4.68 13 4 C10.97536745 3.34786708 10.97536745 3.34786708 9 3 C8.34 4.65 7.68 6.3 7 8 C8.32 7.34 9.64 6.68 11 6 C11 7.98 11 9.96 11 12 C10.01 11.67 9.02 11.34 8 11 C7.91773332 14.04386724 8.02391783 16.07175348 9 19 C6.03 19 3.06 19 0 19 C0 12.73 0 6.46 0 0 Z " fill="#EAEAEA" transform="translate(333,307)"/>
<path d="M0 0 C3.52503652 2.35002434 4.33872565 4.17147818 6.1875 7.9375 C6.71730469 8.99839844 7.24710937 10.05929687 7.79296875 11.15234375 C9 14 9 14 9 17 C9.99 17 10.98 17 12 17 C12 17.66 12 18.32 12 19 C8.7 19 5.4 19 2 19 C2 17.35 2 15.7 2 14 C0.02 14 -1.96 14 -4 14 C-4 15.65 -4 17.3 -4 19 C-5.98 19 -7.96 19 -10 19 C-10 18.34 -10 17.68 -10 17 C-9.34 16.67 -8.68 16.34 -8 16 C-7.09656316 14.11736119 -7.09656316 14.11736119 -6.375 11.9375 C-6.11460937 11.20402344 -5.85421875 10.47054688 -5.5859375 9.71484375 C-5.39257812 9.14894531 -5.19921875 8.58304687 -5 8 C-4.34 8 -3.68 8 -3 8 C-2.87625 7.4225 -2.7525 6.845 -2.625 6.25 C-1.99351176 3.97664233 -1.11141809 2.0746471 0 0 Z M-1 10 C-1.33 10.66 -1.66 11.32 -2 12 C-1.34 12 -0.68 12 0 12 C-0.33 11.34 -0.66 10.68 -1 10 Z " fill="#E2E2E2" transform="translate(320,307)"/>
<path d="M0 0 C3 1 3 1 4.82421875 4.08984375 C5.45565368 5.3673363 6.07636944 6.6501707 6.6875 7.9375 C7.00783203 8.58396484 7.32816406 9.23042969 7.65820312 9.89648438 C10 14.70490738 10 14.70490738 10 17 C10.66 17 11.32 17 12 17 C12 17.66 12 18.32 12 19 C9.03 19 6.06 19 3 19 C2.67 17.68 2.34 16.36 2 15 C0.35 14.67 -1.3 14.34 -3 14 C-3.33 15.65 -3.66 17.3 -4 19 C-5.65 19 -7.3 19 -9 19 C-9 18.34 -9 17.68 -9 17 C-8.34 17 -7.68 17 -7 17 C-6.89816406 16.47921875 -6.79632813 15.9584375 -6.69140625 15.421875 C-5.76928774 12.19185537 -4.36563417 9.28858334 -2.9375 6.25 C-2.38964844 5.07953125 -1.84179688 3.9090625 -1.27734375 2.703125 C-0.85582031 1.81109375 -0.43429687 0.9190625 0 0 Z M-1 9 C-1 9.99 -1 10.98 -1 12 C-0.34 11.67 0.32 11.34 1 11 C0.34 10.34 -0.32 9.68 -1 9 Z " fill="#CCCCCC" transform="translate(421,307)"/>
<path d="M0 0 C2.97 0 5.94 0 9 0 C8.67 0.99 8.34 1.98 8 3 C7.90544339 4.97734566 7.87010606 6.95790083 7.875 8.9375 C7.87242187 9.97777344 7.86984375 11.01804687 7.8671875 12.08984375 C7.91357029 15.21543561 7.91357029 15.21543561 9 19 C6.03 19 3.06 19 0 19 C0 12.73 0 6.46 0 0 Z " fill="#D2D2D2" transform="translate(299,307)"/>
<path d="M0 0 C3.3 0 6.6 0 10 0 C9.67 0.66 9.34 1.32 9 2 C8.7677354 4.71262116 8.58063765 7.40773126 8.4375 10.125 C8.39431641 10.87910156 8.35113281 11.63320313 8.30664062 12.41015625 C8.2005168 14.27321888 8.09974999 16.13658524 8 18 C6.35 18 4.7 18 3 18 C0.73150334 14.34827367 0.6104049 10.9872882 0.375 6.75 C0.30023438 5.48671875 0.22546875 4.2234375 0.1484375 2.921875 C0.09945312 1.95765625 0.05046875 0.9934375 0 0 Z " fill="#E1E1E1" transform="translate(224,307)"/>
<path d="M0 0 C2.97 0 5.94 0 9 0 C8.91297874 2.27155498 8.80480478 4.54230743 8.6875 6.8125 C8.62949219 8.07707031 8.57148438 9.34164063 8.51171875 10.64453125 C8 14 8 14 6.70703125 16.01171875 C5 17 5 17 1 16 C0.67 10.72 0.34 5.44 0 0 Z " fill="#DADBDB" transform="translate(382,307)"/>
<path d="M0 0 C2.875 0.3125 2.875 0.3125 6 1 C8.69148002 5.03722004 8.54726226 8.26276105 8 13 C6.8125 15.5625 6.8125 15.5625 5 17 C2.38671875 17.08984375 2.38671875 17.08984375 0 17 C0.08378906 16.27554687 0.16757812 15.55109375 0.25390625 14.8046875 C0.79527805 9.6650818 1.23721798 5.08634058 0 0 Z " fill="#D0D0D0" transform="translate(362,308)"/>
<path d="M0 0 C0 0.66 0 1.32 0 2 C-0.66 2 -1.32 2 -2 2 C-2 6.62 -2 11.24 -2 16 C-8 15 -8 15 -9.375 13.25 C-10.47151804 9.30253506 -10.48088916 6.96177832 -8.625 3.25 C-6.05830274 -0.30388851 -4.18095989 -0.11002526 0 0 Z " fill="#D0D0D0" transform="translate(213,308)"/>
<path d="M0 0 C2.4377963 -0.05397335 4.87439685 -0.09365616 7.3125 -0.125 C8.00279297 -0.14175781 8.69308594 -0.15851563 9.40429688 -0.17578125 C13.17135396 -0.21217794 14.78431704 -0.14378864 18 2 C18.9375 4.3125 18.9375 4.3125 19 7 C17.5625 9.8125 17.5625 9.8125 15 12 C12.1975057 12.42704675 9.85947552 12.23828963 7 12 C7.99 11.67 8.98 11.34 10 11 C10.80212628 9.12612784 10.80212628 9.12612784 11.1875 6.9375 C11.42533203 5.83728516 11.42533203 5.83728516 11.66796875 4.71484375 C11.77753906 4.14894531 11.88710938 3.58304687 12 3 C10.68 3 9.36 3 8 3 C8 2.34 8 1.68 8 1 C6.02 1 4.04 1 2 1 C1.67 1.99 1.34 2.98 1 4 C0.67 2.68 0.34 1.36 0 0 Z " fill="#BABABA" transform="translate(245,307)"/>
<path d="M0 0 C3.3 0 6.6 0 10 0 C10 3.63 10 7.26 10 11 C8.06280622 11.05406122 6.12518079 11.09282025 4.1875 11.125 C3.10855469 11.14820313 2.02960938 11.17140625 0.91796875 11.1953125 C-2 11 -2 11 -5 9 C-2.36 9.33 0.28 9.66 3 10 C3 8.02 3 6.04 3 4 C0.525 5.485 0.525 5.485 -2 7 C-2 6.01 -2 5.02 -2 4 C-1.34 4 -0.68 4 0 4 C0 2.68 0 1.36 0 0 Z " fill="#C1C5C6" transform="translate(171,315)"/>
<path d="M0 0 C2.31 0 4.62 0 7 0 C6.67 5.61 6.34 11.22 6 17 C4.35 17 2.7 17 1 17 C0.67 11.39 0.34 5.78 0 0 Z " fill="#F7F7F8" transform="translate(184,308)"/>
<path d="M0 0 C1.98 0 3.96 0 6 0 C6.18451025 11.52164009 6.18451025 11.52164009 5 17 C3.35 17 1.7 17 0 17 C0 11.39 0 5.78 0 0 Z " fill="#FCFCFC" transform="translate(281,308)"/>
<path d="M0 0 C5.28 0 10.56 0 16 0 C16.33 1.98 16.66 3.96 17 6 C16.01 6 15.02 6 14 6 C13.67 5.34 13.34 4.68 13 4 C10.47266765 3.34444881 10.47266765 3.34444881 8 3 C8 2.34 8 1.68 8 1 C6.02 1 4.04 1 2 1 C2 6.61 2 12.22 2 18 C3.65 18 5.3 18 7 18 C7.33 17.34 7.66 16.68 8 16 C8.33 16.99 8.66 17.98 9 19 C6.03 19 3.06 19 0 19 C0 12.73 0 6.46 0 0 Z " fill="#929292" transform="translate(333,307)"/>
<path d="M0 0 C0.33 0.66 0.66 1.32 1 2 C0.67 2.66 0.34 3.32 0 4 C0.66 4 1.32 4 2 4 C2 4.66 2 5.32 2 6 C1.34 6 0.68 6 0 6 C0 6.99 0 7.98 0 9 C0.99 8.67 1.98 8.34 3 8 C3.33 9.32 3.66 10.64 4 12 C1.03 11.505 1.03 11.505 -2 11 C-2.33 12.65 -2.66 14.3 -3 16 C-4.65 16 -6.3 16 -8 16 C-8 15.34 -8 14.68 -8 14 C-7.34 14 -6.68 14 -6 14 C-5.88785156 13.44828125 -5.77570313 12.8965625 -5.66015625 12.328125 C-4.88639227 9.59934789 -3.73182306 7.27227057 -2.4375 4.75 C-1.75494141 3.41195313 -1.75494141 3.41195313 -1.05859375 2.046875 C-0.70925781 1.37140625 -0.35992187 0.6959375 0 0 Z " fill="#909090" transform="translate(420,310)"/>
<path d="M0 0 C3 3.75 3 3.75 3 6 C3.66 6.33 4.32 6.66 5 7 C5 7.66 5 8.32 5 9 C3.02 9 1.04 9 -1 9 C-1 10.65 -1 12.3 -1 14 C-2.98 14 -4.96 14 -7 14 C-7 13.34 -7 12.68 -7 12 C-6.34 11.67 -5.68 11.34 -5 11 C-4.09656316 9.11736119 -4.09656316 9.11736119 -3.375 6.9375 C-3.11460937 6.20402344 -2.85421875 5.47054688 -2.5859375 4.71484375 C-2.39257812 4.14894531 -2.19921875 3.58304687 -2 3 C-1.34 3 -0.68 3 0 3 C0 2.01 0 1.02 0 0 Z " fill="#A3A3A3" transform="translate(317,312)"/>
<path d="M0 0 C0.33 0.66 0.66 1.32 1 2 C1.66 2 2.32 2 3 2 C3.66 3.65 4.32 5.3 5 7 C5.66 7 6.32 7 7 7 C7 7.66 7 8.32 7 9 C4.03 9 1.06 9 -2 9 C-2.6875 6.1875 -2.6875 6.1875 -3 3 C-1.5625 1.125 -1.5625 1.125 0 0 Z " fill="#D6D6D6" transform="translate(195,317)"/>
<path d="M0 0 C1.98 0 3.96 0 6 0 C5.67 6.27 5.34 12.54 5 19 C3.68 18.67 2.36 18.34 1 18 C1 17.01 1 16.02 1 15 C1.66 15.66 2.32 16.32 3 17 C3.35403343 11.09944291 3.06647901 7.23856831 0 2 C0 1.34 0 0.68 0 0 Z " fill="#A8A8AA" transform="translate(403,307)"/>
<path d="M0 0 C2.55028983 1.27514492 2.93081711 2.40341297 4 5 C4 5.99 4 6.98 4 8 C4.99 8 5.98 8 7 8 C7 8.66 7 9.32 7 10 C3.7 10 0.4 10 -3 10 C-3 8.68 -3 7.36 -3 6 C-2.01 6 -1.02 6 0 6 C0 4.02 0 2.04 0 0 Z " fill="#A2A2A2" transform="translate(325,316)"/>
<path d="M0 0 C1.4370809 -0.05422947 2.87475462 -0.09289723 4.3125 -0.125 C5.11300781 -0.14820313 5.91351563 -0.17140625 6.73828125 -0.1953125 C9 0 9 0 12 2 C12 2.99 12 3.98 12 5 C10.35 5.33 8.7 5.66 7 6 C7 5.01 7 4.02 7 3 C4.36 2.67 1.72 2.34 -1 2 C-0.67 1.34 -0.34 0.68 0 0 Z " fill="#A7A9AA" transform="translate(168,307)"/>
<path d="M0 0 C3 3.75 3 3.75 3 6 C3.66 6.33 4.32 6.66 5 7 C5 7.66 5 8.32 5 9 C3.02 9 1.04 9 -1 9 C-0.67 7.68 -0.34 6.36 0 5 C-0.66 5 -1.32 5 -2 5 C-2 4.34 -2 3.68 -2 3 C-1.34 3 -0.68 3 0 3 C0 2.01 0 1.02 0 0 Z " fill="#7F7F7F" transform="translate(317,312)"/>
<path d="M0 0 C0.33 0.66 0.66 1.32 1 2 C2.32 2 3.64 2 5 2 C5 2.66 5 3.32 5 4 C2.24921116 4.91692961 0.64051087 5.10886083 -2.1875 5.0625 C-4.0746875 5.0315625 -4.0746875 5.0315625 -6 5 C-5.34 4.67 -4.68 4.34 -4 4 C-3.67 3.34 -3.34 2.68 -3 2 C-2.34 2.33 -1.68 2.66 -1 3 C-0.67 2.01 -0.34 1.02 0 0 Z " fill="#929292" transform="translate(383,321)"/>
</svg>
